<svg height="100%" stroke-miterlimit="10" style="fill-rule:nonzero;clip-rule:evenodd;stroke-linecap:round;stroke-linejoin:round;" version="1.1" viewBox="0 0 700 700" width="100%" xml:space="preserve" xmlns="http://www.w3.org/2000/svg" xmlns:vectornator="http://vectornator.io" xmlns:xlink="http://www.w3.org/1999/xlink">
<defs/>
<g id="Untitled" vectornator:layerName="Untitled">
<path d="M574.437 539.902L462.437 427.902C490.722 393.132 504.585 348.836 501.175 304.142C497.76 259.451 477.331 217.775 444.093 187.702C410.859 157.632 367.351 141.46 322.543 142.518C277.734 143.581 235.039 161.791 203.263 193.401C171.654 225.178 153.443 267.874 152.38 312.681C151.321 357.49 167.493 400.997 197.564 434.231C227.638 467.469 269.314 487.899 314.004 491.313C358.695 494.723 402.992 480.86 437.764 452.575L549.764 564.575C554.271 568.434 560.424 569.747 566.112 568.067C571.799 566.384 576.249 561.934 577.932 556.247C579.611 550.56 578.299 544.407 574.439 539.899L574.437 539.902ZM227.937 416.182C197.144 385.424 182.41 342.092 188.066 298.942C193.718 255.79 219.125 217.719 256.8 195.932C294.48 174.147 340.144 171.123 380.37 187.752C420.596 204.382 450.792 238.768 462.085 280.799C473.378 322.83 464.483 367.725 438.015 402.279C411.546 436.826 370.515 457.099 326.995 457.134C289.835 457.259 254.167 442.513 227.944 416.185L227.937 416.182ZM344.487 212.132C344.487 216.773 342.643 221.226 339.362 224.507C336.08 227.788 331.627 229.632 326.987 229.632C303.78 229.632 281.526 238.851 265.116 255.261C248.706 271.671 239.487 293.925 239.487 317.132C239.487 323.386 236.151 329.163 230.737 332.288C225.322 335.413 218.651 335.413 213.237 332.288C207.823 329.163 204.487 323.386 204.487 317.132C204.487 284.644 217.393 253.484 240.366 230.511C263.339 207.538 294.499 194.632 326.987 194.632C331.627 194.632 336.08 196.476 339.362 199.757C342.643 203.038 344.487 207.491 344.487 212.132Z" fill="#ffffff" fill-rule="nonzero" opacity="1" stroke="none" vectornator:layerName="path"/>
</g>
</svg>
